<svg xmlns="http://www.w3.org/2000/svg" width="78" height="112" viewBox="0 0 78 112">
<rect x="1.5" y="1.5" width="75" height="109" rx="7" fill="#f7f0dc" stroke="#211b16" stroke-width="3"/>
<path d="M8 98 C22 75, 27 52, 35 18" fill="none" stroke="#2e241d" stroke-width="3.2" stroke-linecap="round"/>
<ellipse cx="12" cy="82" rx="7" ry="3" transform="rotate(-30 12 82)" fill="#d44763" opacity=".78"/><ellipse cx="22" cy="73" rx="7" ry="3" transform="rotate(-18 22 73)" fill="#d44763" opacity=".78"/><ellipse cx="32" cy="82" rx="7" ry="3" transform="rotate(-6 32 82)" fill="#d44763" opacity=".78"/><ellipse cx="42" cy="73" rx="7" ry="3" transform="rotate(6 42 73)" fill="#d44763" opacity=".78"/><ellipse cx="52" cy="82" rx="7" ry="3" transform="rotate(18 52 82)" fill="#d44763" opacity=".78"/><ellipse cx="62" cy="73" rx="7" ry="3" transform="rotate(30 62 73)" fill="#d44763" opacity=".78"/><circle cx="18" cy="24" r="6" fill="#d44763" opacity="0.72"/><circle cx="32" cy="24" r="6" fill="#d44763" opacity="0.7999999999999999"/><circle cx="46" cy="24" r="6" fill="#d44763" opacity="0.72"/><circle cx="18" cy="38" r="6" fill="#d44763" opacity="0.7999999999999999"/><circle cx="32" cy="38" r="6" fill="#d44763" opacity="0.72"/><circle cx="46" cy="38" r="6" fill="#d44763" opacity="0.7999999999999999"/><path d="M40 54 q12 -15 24 0 q-3 16 -12 22 q-10 -5 -12 -22z" fill="#f3e2b1" stroke="#4b3722" stroke-width="2"/><circle cx="48" cy="56" r="1.8" fill="#222"/><circle cx="57" cy="56" r="1.8" fill="#222"/>
<rect x="5" y="5" width="18" height="16" rx="4" fill="#18130f" opacity=".92"/><text x="14" y="17" text-anchor="middle" font-size="9" font-weight="800" fill="#fff">6월</text>
<rect x="6" y="92" width="66" height="13" rx="4" fill="#fff" opacity=".88"/><text x="39" y="102" text-anchor="middle" font-size="8.5" font-weight="800" fill="#251b16">모란 · 열끗</text>
</svg>